<?xml version="1.0" encoding="utf-8"?>
<!-- Generator: Adobe Illustrator 15.0.0, SVG Export Plug-In  -->
<!DOCTYPE svg PUBLIC "-//W3C//DTD SVG 1.1//EN" "http://www.w3.org/Graphics/SVG/1.1/DTD/svg11.dtd" [
	<!ENTITY ns_flows "http://ns.adobe.com/Flows/1.0/">
]>
<svg version="1.1"
	 xmlns="http://www.w3.org/2000/svg" xmlns:xlink="http://www.w3.org/1999/xlink" xmlns:a="http://ns.adobe.com/AdobeSVGViewerExtensions/3.0/"
	 x="0px" y="0px" width="360px" height="76px" viewBox="17 10.986 360 76"
	 overflow="visible" enable-background="new 17 10.986 360 76" xml:space="preserve">
<defs>
</defs>
<rect display="none" width="396" height="396"/>
<path fill="#FFFFFF" d="M17.354,62.415V10.986h8.414v26.99c3.128-5.275,8.176-7.913,15.144-7.913c5.491,0,9.992,2.015,13.505,6.043
	c3.513,4.03,5.27,9.225,5.27,15.583c0,6.945-1.941,12.491-5.823,16.638c-3.882,4.146-8.613,6.22-14.191,6.22
	c-6.702,0-11.75-2.666-15.145-8l-0.354,7.033H17C17.236,70.884,17.354,67.163,17.354,62.415z M25.591,49.229v6.944
	c0,3.165,1.188,5.935,3.565,8.308c2.375,2.374,5.32,3.561,8.833,3.561c4.104,0,7.358-1.443,9.765-4.331
	c2.405-2.886,3.609-6.776,3.609-11.67c0-4.542-1.196-8.271-3.587-11.187c-2.391-2.915-5.595-4.373-9.609-4.373
	c-3.542,0-6.524,1.282-8.945,3.846C26.801,42.892,25.591,45.858,25.591,49.229z"/>
<path fill="#FFFFFF" d="M94.403,47.821v15.561c0,4.22,0.236,7.62,0.708,10.198h-7.528l-0.974-5.451
	c-3.218,4.279-7.735,6.418-13.55,6.418c-4.074,0-7.335-1.194-9.786-3.582c-2.451-2.389-3.675-5.268-3.675-8.639
	c0-5.156,2.258-9.098,6.775-11.823c4.517-2.725,11.114-4.088,19.794-4.088v-0.792c0-3.018-0.834-5.37-2.502-7.055
	c-1.667-1.685-4.14-2.527-7.417-2.527c-4.369,0-8.266,1.085-11.69,3.253l-1.86-5.363c4.133-2.578,9.063-3.868,14.79-3.868
	c5.58,0,9.793,1.524,12.643,4.571C92.979,37.683,94.403,42.079,94.403,47.821z M86.343,59.074v-7.033
	c-6.907,0-11.706,0.821-14.392,2.462c-2.686,1.641-4.029,3.897-4.029,6.769c0,2.256,0.672,4.022,2.015,5.297
	c1.343,1.275,3.122,1.912,5.336,1.912c3.129,0,5.757-0.959,7.882-2.879C85.281,63.683,86.343,61.507,86.343,59.074z"/>
<path fill="#FFFFFF" d="M130.979,65.844l1.328,6.154c-3.631,1.699-7.912,2.549-12.842,2.549c-6.613,0-11.955-2.006-16.029-6.022
	c-4.073-4.015-6.111-9.245-6.111-15.692c0-6.71,2.192-12.183,6.576-16.418c4.384-4.234,10.133-6.351,17.248-6.351
	c4.31,0,8.088,0.791,11.336,2.374l-1.772,6.242c-2.716-1.406-5.874-2.11-9.476-2.11c-4.694,0-8.45,1.473-11.27,4.417
	c-2.819,2.946-4.229,6.719-4.229,11.319c0,4.777,1.431,8.579,4.295,11.407c2.863,2.829,6.509,4.242,10.937,4.242
	C124.395,67.954,127.73,67.25,130.979,65.844z"/>
<path fill="#FFFFFF" d="M143.377,10.986l0.177,39.385c1.092-1.524,2.436-3.18,4.03-4.967l12.708-14.374H170.3l-17.093,17.407
	l19.572,25.143h-10.184l-15.056-20.308l-4.162,4.484V73.58h-8.237V10.986H143.377z"/>
<path fill="#FFFFFF" d="M173.31,90.986V45.008c0-5.713-0.118-10.373-0.354-13.978h7.352l0.443,7.385h0.177
	c3.571-5.568,8.885-8.352,15.941-8.352c5.373,0,9.845,2.015,13.417,6.043c3.571,4.03,5.358,9.195,5.358,15.496
	c0,7.004-1.926,12.578-5.778,16.725c-3.853,4.146-8.657,6.22-14.414,6.22c-2.922,0-5.601-0.586-8.036-1.758
	c-2.436-1.172-4.333-2.842-5.69-5.011h-0.177v23.208H173.31z M181.546,49.14v6.858c0,3.428,1.202,6.308,3.608,8.637
	c2.406,2.33,5.306,3.494,8.701,3.494c4.133,0,7.41-1.457,9.832-4.373c2.42-2.916,3.631-6.85,3.631-11.802
	c0-4.454-1.196-8.132-3.588-11.033c-2.391-2.901-5.564-4.352-9.52-4.352c-2.54,0-4.872,0.725-6.997,2.176
	c-2.126,1.45-3.603,3.224-4.428,5.318C181.959,46.159,181.546,47.85,181.546,49.14z"/>
<path fill="#FFFFFF" d="M250.358,47.821v15.561c0,4.22,0.236,7.62,0.708,10.198h-7.527l-0.975-5.451
	c-3.218,4.279-7.735,6.418-13.55,6.418c-4.074,0-7.336-1.194-9.786-3.582c-2.451-2.389-3.675-5.268-3.675-8.639
	c0-5.156,2.258-9.098,6.774-11.823s11.114-4.088,19.794-4.088v-0.792c0-3.018-0.834-5.37-2.502-7.055
	c-1.668-1.685-4.14-2.527-7.418-2.527c-4.368,0-8.266,1.085-11.689,3.253l-1.86-5.363c4.134-2.578,9.063-3.868,14.79-3.868
	c5.58,0,9.793,1.524,12.644,4.571C248.934,37.683,250.358,42.079,250.358,47.821z M242.298,59.074v-7.033
	c-6.906,0-11.704,0.821-14.391,2.462c-2.686,1.641-4.029,3.897-4.029,6.769c0,2.256,0.671,4.022,2.015,5.297
	c1.343,1.275,3.122,1.912,5.336,1.912c3.13,0,5.757-0.959,7.883-2.879C241.236,63.683,242.298,61.507,242.298,59.074z"/>
<path fill="#FFFFFF" d="M286.933,65.844l1.33,6.154c-3.633,1.699-7.912,2.549-12.841,2.549c-6.614,0-11.957-2.006-16.032-6.022
	c-4.072-4.015-6.109-9.245-6.109-15.692c0-6.71,2.192-12.183,6.575-16.418c4.385-4.234,10.132-6.351,17.247-6.351
	c4.311,0,8.09,0.791,11.336,2.374l-1.771,6.242c-2.716-1.406-5.875-2.11-9.477-2.11c-4.693,0-8.45,1.473-11.27,4.417
	c-2.818,2.946-4.229,6.719-4.229,11.319c0,4.777,1.431,8.579,4.296,11.407c2.862,2.829,6.509,4.242,10.938,4.242
	C280.351,67.954,283.687,67.25,286.933,65.844z"/>
<path fill="#FFFFFF" d="M299.333,10.986l0.177,39.385c1.091-1.524,2.435-3.18,4.028-4.967l12.71-14.374h10.007l-17.092,17.407
	l19.571,25.143h-10.186l-15.054-20.308l-4.162,4.484V73.58h-8.237V10.986H299.333z"/>
<linearGradient id="SVGID_1_" gradientUnits="userSpaceOnUse" x1="348.3936" y1="73.5801" x2="348.3936" y2="31.0303">
	<stop  offset="0" style="stop-color:#54758B"/>
	<stop  offset="0.3567" style="stop-color:#57778E"/>
	<stop  offset="0.6431" style="stop-color:#607F96"/>
	<stop  offset="0.9043" style="stop-color:#6F8EA5"/>
	<stop  offset="1" style="stop-color:#7797AF"/>
</linearGradient>
<polygon fill="url(#SVGID_1_)" points="377,73.58 339.362,73.58 319.787,48.438 336.887,31.03 377,31.03 "/>
<path fill="#FFFFFF" stroke="#54758B" stroke-width="3" stroke-miterlimit="10" d="M342.971,42.01l6.694-1.804v5.852h4.92v5.016
	h-4.92v7.568c0,1.424,0.211,2.424,0.632,3.003s1.112,0.869,2.073,0.869c0.886,0,1.578-0.073,2.082-0.22l0.045,5.148
	c-1.079,0.41-2.571,0.614-4.479,0.614c-2.065,0-3.759-0.61-5.072-1.836c-1.315-1.224-1.975-3.384-1.975-6.479v-8.667h-2.925v-5.016
	h2.925V42.01z"/>
<path fill="#FFFFFF" stroke="#54758B" stroke-width="3" stroke-miterlimit="10" d="M363.981,67.573h-6.871v-16.5h-2.836v-5.016
	h2.836v-0.791c0-1.805,0.362-3.469,1.086-4.994c0.725-1.526,1.792-2.659,3.203-3.399c1.41-0.741,2.937-1.112,4.576-1.112
	c1.184,0,2.38,0.146,3.591,0.439l-0.222,5.236c-0.664-0.204-1.405-0.308-2.215-0.308c-1.021,0-1.807,0.342-2.36,1.024
	c-0.555,0.681-0.832,1.616-0.832,2.804v1.1h4.39v5.016h-4.346V67.573z"/>
<path fill="#FFFFFF" d="M342.971,42.01l6.694-1.804v5.852h4.92v5.016h-4.92v7.568c0,1.424,0.211,2.424,0.632,3.003
	s1.112,0.869,2.073,0.869c0.886,0,1.578-0.073,2.082-0.22l0.045,5.148c-1.079,0.41-2.571,0.614-4.479,0.614
	c-2.065,0-3.759-0.61-5.072-1.836c-1.315-1.224-1.975-3.384-1.975-6.479v-8.667h-2.925v-5.016h2.925V42.01z"/>
<path fill="#FFFFFF" d="M363.981,67.573h-6.871v-16.5h-2.836v-5.016h2.836v-0.791c0-1.805,0.362-3.469,1.086-4.994
	c0.725-1.526,1.792-2.659,3.203-3.399c1.41-0.741,2.937-1.112,4.576-1.112c1.184,0,2.38,0.146,3.591,0.439l-0.222,5.236
	c-0.664-0.204-1.405-0.308-2.215-0.308c-1.021,0-1.807,0.342-2.36,1.024c-0.555,0.681-0.832,1.616-0.832,2.804v1.1h4.39v5.016
	h-4.346V67.573z"/>
</svg>
